<?xml version="1.0" encoding="utf-8"?>
<!-- Generator: Adobe Illustrator 19.0.0, SVG Export Plug-In . SVG Version: 6.00 Build 0)  -->
<svg version="1.1" id="Layer_1" xmlns="http://www.w3.org/2000/svg" xmlns:xlink="http://www.w3.org/1999/xlink" x="0px" y="0px"
	 viewBox="-467 269 24 24" style="enable-background:new -467 269 24 24;" xml:space="preserve">
<path d="M-448,272h-4.2c-0.4-1.2-1.5-2-2.8-2s-2.4,0.8-2.8,2h-4.2c-1.1,0-2,0.9-2,2v14c0,1.1,0.9,2,2,2h14c1.1,0,2-0.9,2-2v-14
	C-446,272.9-446.9,272-448,272z M-455,272c0.5,0,1,0.5,1,1s-0.5,1-1,1s-1-0.5-1-1S-455.5,272-455,272z M-455,276c1.7,0,3,1.3,3,3
	s-1.3,3-3,3s-3-1.3-3-3S-456.7,276-455,276z M-449,288h-12v-1.4c0-2,4-3.1,6-3.1s6,1.1,6,3.1V288z"/>
</svg>
