<?xml version="1.0" encoding="utf-8"?>
<!-- Generator: Adobe Illustrator 19.0.0, SVG Export Plug-In . SVG Version: 6.00 Build 0)  -->
<svg version="1.1" id="Layer_1" xmlns="http://www.w3.org/2000/svg" xmlns:xlink="http://www.w3.org/1999/xlink" x="0px" y="0px"
	 viewBox="-293 385 24 24" style="enable-background:new -293 385 24 24;" xml:space="preserve">
<path d="M-281,387c-4.4,0-8,0.5-8,4v9.5c0,1.9,1.6,3.5,3.5,3.5l-1.5,1.5v0.5h12v-0.5l-1.5-1.5c1.9,0,3.5-1.6,3.5-3.5V391
	C-273,387.5-276.6,387-281,387z M-285.5,402c-0.8,0-1.5-0.7-1.5-1.5s0.7-1.5,1.5-1.5s1.5,0.7,1.5,1.5S-284.7,402-285.5,402z
	 M-282,396h-5v-5h5V396z M-276.5,402c-0.8,0-1.5-0.7-1.5-1.5s0.7-1.5,1.5-1.5s1.5,0.7,1.5,1.5S-275.7,402-276.5,402z M-275,396h-5
	v-5h5V396z"/>
</svg>
