<?xml version="1.0" encoding="utf-8"?>
<!-- Generator: Adobe Illustrator 16.0.0, SVG Export Plug-In . SVG Version: 6.00 Build 0)  -->
<!DOCTYPE svg PUBLIC "-//W3C//DTD SVG 1.1//EN" "http://www.w3.org/Graphics/SVG/1.1/DTD/svg11.dtd">
<svg version="1.1" id="Layer_1" xmlns="http://www.w3.org/2000/svg" xmlns:xlink="http://www.w3.org/1999/xlink" x="0px" y="0px"
	 width="256px" height="271px" viewBox="-280.5 127.5 256 271" enable-background="new -280.5 127.5 256 271" xml:space="preserve">
<path d="M-109.833,255.5v-85.333L-152.5,127.5l-42.667,42.667v28.444H-280.5v199.111h256V255.5H-109.833z M-223.611,369.277h-28.444
	v-28.444h28.444V369.277z M-223.611,312.389h-28.444v-28.444h28.444V312.389z M-223.611,255.5h-28.444v-28.444h28.444V255.5z
	 M-138.277,369.277h-28.445v-28.444h28.445V369.277z M-138.277,312.389h-28.445v-28.444h28.445V312.389z M-138.277,255.5h-28.445
	v-28.444h28.445V255.5z M-138.277,198.611h-28.445v-28.444h28.445V198.611z M-52.944,369.277h-28.444v-28.444h28.444V369.277z
	 M-52.944,312.389h-28.444v-28.444h28.444V312.389z"/>
</svg>
