<?xml version="1.0" encoding="utf-8"?>
<!-- Generator: Adobe Illustrator 16.0.0, SVG Export Plug-In . SVG Version: 6.00 Build 0)  -->
<!DOCTYPE svg PUBLIC "-//W3C//DTD SVG 1.1//EN" "http://www.w3.org/Graphics/SVG/1.1/DTD/svg11.dtd">
<svg version="1.1" id="Layer_1" xmlns="http://www.w3.org/2000/svg" xmlns:xlink="http://www.w3.org/1999/xlink" x="0px" y="0px"
	 width="24px" height="24px" viewBox="0 0 24 24" enable-background="new 0 0 24 24" xml:space="preserve">
<path d="M1,9h2V7H1V9z M1,13h2v-2H1V13z M1,5h2V3C2,3,1,4,1,5z M9,21h2v-2H9V21z M1,17h2v-2H1V17z M3,21v-2H1C1,20,2,21,3,21z M21,3
	h-8v6h10V5C23,3.9,22.1,3,21,3z M21,17h2v-2h-2V17z M9,5h2V3H9V5z M5,21h2v-2H5V21z M5,5h2V3H5V5z M21,21c1,0,2-1,2-2h-2V21z M21,13
	h2v-2h-2V13z M13,21h2v-2h-2V21z M17,21h2v-2h-2V21z"/>
</svg>
